<svg width="48" height="48" fill="none" xmlns="http://www.w3.org/2000/svg"><g clip-path="url(#a)"><path d="M46.301 9.42c-1.13.928-2.618 1.393-4.103 1.393-.158 0-.315 0-.472-.017h-.178a2.284 2.284 0 0 0-1.444.49 1.535 1.535 0 0 0-.597 1.184v5.5a1.532 1.532 0 0 1 .597-1.184c.411-.324.92-.496 1.444-.49.06 0 .119 0 .178.007.157.01.314.015.472.015 1.485 0 2.97-.463 4.103-1.392 1.132-.929 1.7-2.145 1.7-3.361V6.06c0 1.216-.567 2.432-1.7 3.36zM22.437 12.875c-.08-.07-.162-.14-.25-.206-1.292-1.064-2.94-1.573-4.588-1.573-.32 0-.64.019-.959.058a2.761 2.761 0 0 1-1.255-.559c-.531-.435-.795-.991-.795-1.538v5.5c0 .547.264 1.102.795 1.538.365.29.796.481 1.255.559.318-.04.638-.059.959-.059 1.648 0 3.296.513 4.592 1.578.085.068.166.135.252.207 1.143 1.004 1.713 2.297 1.713 3.587v-5.505c-.005-1.29-.575-2.58-1.719-3.587z" fill="#8B8987"/><path d="M46.716 23.976 26.94 40.177a4.925 4.925 0 0 1-5.997 0L1.242 24.04C.413 23.36 0 22.472 0 21.584v5.498c0 .89.414 1.779 1.241 2.457l19.706 16.138a4.93 4.93 0 0 0 5.997 0l19.772-16.202c.829-.678 1.243-1.567 1.243-2.455v-5.505c0 .893-.414 1.782-1.243 2.461z" fill="#8B8987"/><path d="M42.198 1.307c1.481 0 2.97.464 4.102 1.392 2.267 1.856 2.267 4.864 0 6.72-1.13.93-2.618 1.394-4.103 1.394-.158 0-.315 0-.472-.016h-.178a2.284 2.284 0 0 0-1.444.49c-.797.653-.797 1.712 0 2.366l6.614 5.418c1.656 1.355 1.656 3.554 0 4.91L26.939 40.178a4.925 4.925 0 0 1-5.997 0l-19.7-16.139c-1.656-1.355-1.656-3.554 0-4.908l5.108-4.185a2.968 2.968 0 0 1 3.614 0l.608.502c.259.21.46.48.589.786-.045 1.415.6 2.843 1.938 3.912a7.247 7.247 0 0 0 4.62 1.603c1.68 0 3.359-.535 4.625-1.604 2.371-2.002 2.416-5.22.094-7.262-.08-.07-.162-.14-.25-.206-1.292-1.071-2.94-1.58-4.588-1.58-.32 0-.641.02-.96.058a2.76 2.76 0 0 1-1.254-.558c-1.05-.861-1.05-2.187-.052-3.004l5.69-4.66a4.924 4.924 0 0 1 5.996 0l5.92 4.849a2.37 2.37 0 0 0 2.887 0 1.506 1.506 0 0 0 .589-1.328c-.133-1.343.426-2.721 1.679-3.75 1.133-.932 2.618-1.396 4.103-1.396z" fill="#BEBDB9"/><path d="M32.661 12.256c0-.932-.047-1.864-.143-2.791a3.615 3.615 0 0 1-.627-.412l-5.923-4.847a3.276 3.276 0 0 0-3.901 0l-5.69 4.66a.325.325 0 0 0-.136.186c0 .036.04.138.186.258.096.074.205.13.32.166.284-.025.57-.039.854-.039 2.097 0 4.094.69 5.628 1.944.103.083.203.166.303.251 1.484 1.307 2.291 3.044 2.273 4.895-.02 1.852-.87 3.589-2.395 4.875-1.525 1.287-3.543 1.995-5.691 1.995a8.938 8.938 0 0 1-5.66-1.97c-1.532-1.23-2.44-2.923-2.544-4.713l-.603-.492a1.323 1.323 0 0 0-1.518 0l-5.108 4.185c-.41.336-.636.753-.636 1.177 0 .425.225.841.636 1.176l16.191 13.263a26.984 26.984 0 0 0 14.184-23.767z" fill="#DAD8D6"/><path d="M23.151 9.941c1.836 0 3.325-.768 3.325-1.715 0-.948-1.489-1.716-3.325-1.716s-3.325.768-3.325 1.716c0 .947 1.489 1.715 3.325 1.715z" fill="#BEBDB9"/><path d="M37.531 24.618c2.842 0 5.146-1.189 5.146-2.655 0-1.467-2.304-2.656-5.146-2.656s-5.146 1.189-5.146 2.655c0 1.467 2.304 2.656 5.146 2.656z" fill="#8B8987"/><path d="M27.534 22.172c.986 0 1.785-.413 1.785-.922 0-.508-.8-.92-1.785-.92-.986 0-1.785.412-1.785.92 0 .51.8.922 1.785.922z" fill="#BEBDB9"/><path d="M31.307 19.453c.986 0 1.785-.413 1.785-.921 0-.51-.799-.922-1.785-.922-.985 0-1.784.413-1.784.922 0 .508.799.92 1.784.92z" fill="#8B8987"/><path fill-rule="evenodd" clip-rule="evenodd" d="M32.107 17.708a3.215 3.215 0 0 0-.8-.098c-.985 0-1.784.413-1.784.922 0 .508.799.92 1.784.92.133 0 .262-.007.386-.02.157-.57.295-1.145.414-1.724z" fill="#BEBDB9"/><path d="M6.796 22.172c.985 0 1.784-.413 1.784-.922 0-.508-.799-.92-1.784-.92-.986 0-1.785.412-1.785.92 0 .51.799.922 1.785.922zM12.551 25.765c1.643 0 2.975-.687 2.975-1.535 0-.847-1.332-1.535-2.975-1.535s-2.975.688-2.975 1.535c0 .848 1.332 1.535 2.975 1.535z" fill="#BEBDB9"/></g><defs><clipPath id="a"><path fill="#fff" d="M0 0h48v48H0z"/></clipPath></defs></svg>