<svg width="80" height="50" fill="none" xmlns="http://www.w3.org/2000/svg"><g clip-path="url(#a)"><path fill-rule="evenodd" clip-rule="evenodd" d="M30.697 3.425S10.74 1.255 5.99 0c0 0-.342 5.526 4.658 8.197 2.283 1.233 6.69 1.736 10.777 1.918.069.8.206 1.576.389 2.33-7.239.227-16.007.616-16.007.616s1.233 5.48 6.713 6.553c2.672.525 7.375-.503 11.485-1.667.457.8.96 1.576 1.508 2.329-6.143 2.854-12.787 6.028-12.787 6.028s3.082 4.727 8.448 3.63c2.306-.456 4.201-1.735 7.193-4.087.708.617 1.438 1.21 2.215 1.758a171.673 171.673 0 0 0-7.604 7.627s3.745 3.22 7.9.822c1.325-.754 2.854-2.466 4.339-4.453 2.351-11.508-4.521-28.199-4.521-28.199v.023zM44.9 31.601c1.483 1.987 3.013 3.7 4.337 4.453 4.179 2.374 7.9-.822 7.9-.822s-3.242-3.54-7.603-7.627a32.496 32.496 0 0 0 2.215-1.758c3.014 2.352 4.91 3.63 7.193 4.087 5.365 1.096 8.448-3.63 8.448-3.63s-6.645-3.174-12.787-6.028c.548-.753 1.05-1.53 1.507-2.329 4.11 1.187 8.814 2.192 11.485 1.667 5.48-1.073 6.713-6.553 6.713-6.553s-8.768-.389-16.006-.617c.183-.776.32-1.553.388-2.329 4.088-.183 8.494-.685 10.778-1.918C74.49 5.526 74.126 0 74.126 0 69.399 1.256 49.42 3.425 49.42 3.425s-6.873 16.691-4.52 28.2V31.6z" fill="#8B8987"/><path d="M52.411 34.798c-8.197-4.247-16.394-4.247-24.591 0 4.932 3.22 6.53 6.439 4.795 9.681-.845 1.53 15.709 1.416 14.91-.205-1.576-3.151.068-6.325 4.886-9.476z" fill="#8B8987"/><path d="M45.47 38.383H34.647c-6.12 0-11.211-4.727-11.668-10.846L21.084 2.009A1.716 1.716 0 0 1 22.796.16H57.32c1.005 0 1.804.846 1.713 1.85l-1.895 25.55c-.457 6.12-5.549 10.847-11.668 10.847v-.023zM56.59 42.105H23.527a2.578 2.578 0 0 0-2.58 2.58v3.767c0 .89.73 1.644 1.644 1.644h34.98c.891 0 1.645-.73 1.645-1.644v-3.767a2.578 2.578 0 0 0-2.58-2.58h-.046z" fill="#DAD8D6"/></g><defs><clipPath id="a"><path fill="#fff" d="M0 0h80v50H0z"/></clipPath></defs></svg>